<svg xmlns="http://www.w3.org/2000/svg" shape-rendering="geometricPrecision" text-rendering="geometricPrecision" image-rendering="optimizeQuality" fill-rule="evenodd" clip-rule="evenodd" viewBox="0 0 512 399.025"><path fill="#3470FF" d="M206.368 165.609c43.461 37.236 56.949 94.55 39.787 148.139h116.876c8.713-37.738 42.53-65.87 82.915-65.87a84.871 84.871 0 0130.241 5.537l12.079-71.018c2.596-15.263-12.667-28.147-28.145-28.147H275.234c12.839-60.701-2.165-81.415-10.8-143.157C261.014 2.239 254.314.248 246.792 0H90.499c-7.843.071-13.281 3.962-16.133 12.102L63.78 114.194l-21.101 24.94c-9.232 10.666-6.537 8.193 1.939 20.943a93.988 93.988 0 014.422-3.078c44.419-29.099 115.533-23.839 157.328 8.61zM120.095 33.767h100.558c9.572 0 15.525 8.028 17.4 17.399l11.342 56.74c1.874 9.374-8.547 21.009-17.396 17.396-38.544-15.735-78.392-23.661-119.465-24.199-9.56-.129-19.567-8.08-17.401-17.401l7.563-32.536c2.167-9.323 7.828-17.399 17.399-17.399z"/><path fill="#BEEDF6" d="M120.093 33.767h100.562c9.569 0 15.525 8.028 17.398 17.397l11.342 56.742c1.874 9.374-8.548 21.009-17.398 17.397-38.543-15.733-78.39-23.662-119.465-24.203-9.558-.126-19.565-8.077-17.398-17.398l7.562-32.538c2.166-9.321 7.828-17.397 17.397-17.397z"/><path fill="#fff" d="M249.615 110.112c.051 8.874-9.453 18.524-17.618 15.191a332.8 332.8 0 00-19.022-7.096L102.004 54.14l.692-2.976c1.978-8.512 6.871-15.984 14.994-17.217l131.925 76.165zM148.669 33.767h25.33l68.478 39.536 3.306 16.532z"/><path fill="#182C3D" d="M112.971 161.534c62.393 0 112.973 50.579 112.973 112.971s-50.58 112.971-112.973 112.971C50.579 387.476 0 336.897 0 274.505s50.579-112.971 112.971-112.971zM445.944 266.914c36.482 0 66.056 29.573 66.056 66.054 0 36.483-29.574 66.057-66.056 66.057-36.481 0-66.056-29.574-66.056-66.057 0-36.481 29.575-66.054 66.056-66.054z"/><path fill="#182C3D" fill-rule="nonzero" d="M353.333 21.97a1.572 1.572 0 012.253 2.19c-1.193 1.224-.735 2.971-.307 4.603.72 2.743 1.39 5.295-1.928 7.193a1.574 1.574 0 01-1.564-2.731c1.23-.703.856-2.13.455-3.661-.647-2.466-1.34-5.101 1.091-7.594zm11.368 54.16c5.282.243 9.527 4.645 9.527 9.978v68.142h-31.916V86.108c0-5.243 4.095-9.577 9.245-9.961V40.914h13.144V76.13zm-1.856-54.16a1.572 1.572 0 012.253 2.19c-1.191 1.224-.735 2.969-.307 4.602.72 2.744 1.39 5.296-1.929 7.194a1.574 1.574 0 01-1.564-2.731c1.231-.703.857-2.13.455-3.663-.647-2.465-1.336-5.099 1.092-7.592z"/><path fill="#A1321E" d="M367.348 187.298h66.776l-1.504 7.703h-66.588l1.316-7.703zm-23.444 41.575h90.22l-1.504 7.702h-90.03l1.314-7.702zm8.319-20.788h81.901l-1.504 7.703h-81.713l1.316-7.703z"/><path fill="#D2D8D3" d="M445.944 294.222c21.4 0 38.748 17.348 38.748 38.746 0 21.401-17.348 38.748-38.748 38.748-21.399 0-38.747-17.347-38.747-38.748 0-21.398 17.348-38.746 38.747-38.746z"/><path fill="#EA3E26" fill-rule="nonzero" d="M163.128 32.114c0-11.393 17.323-11.393 17.323 0v82.57c0 11.394-17.323 11.394-17.323 0v-82.57z"/><path fill="#D2D8D3" d="M112.972 206.315c37.66 0 68.188 30.53 68.188 68.19 0 37.659-30.528 68.189-68.188 68.189-37.66 0-68.189-30.53-68.189-68.189 0-37.66 30.529-68.19 68.189-68.19z"/><circle fill="#fff" cx="112.972" cy="274.505" r="33.51"/><circle fill="#fff" cx="445.944" cy="332.969" r="16.126"/><circle cx="112.972" cy="274.506" r="13.695"/><circle cx="112.973" cy="228.497" r="2.385"/><circle transform="rotate(30 -369.895 371.065) scale(5.47662)" r=".435"/><circle transform="rotate(60 -141.398 258.093) scale(5.47662)" r=".435"/><circle transform="rotate(90 -57.763 216.743) scale(5.47662)" r=".435"/><circle transform="rotate(120 -9.475 192.869) scale(5.47662)" r=".435"/><circle transform="rotate(150 25.873 175.391) scale(5.47662)" r=".435"/><circle cx="112.973" cy="320.513" r="2.385"/><circle transform="rotate(-150 87.099 145.12) scale(5.47662)" r=".435"/><circle transform="rotate(-120 122.448 127.644) scale(5.47662)" r=".435"/><circle transform="rotate(-90 170.735 103.77) scale(5.47662)" r=".435"/><circle transform="rotate(-60 254.37 62.419) scale(5.47662)" r=".435"/><circle transform="rotate(-30 482.868 -50.553) scale(5.47662)" r=".435"/><circle cx="445.944" cy="332.968" r="5.873"/><circle cx="445.944" cy="308.229" r="1.772"/><circle transform="rotate(45 -149.093 717.157) scale(4.06872)" r=".435"/><circle transform="rotate(90 68.858 401.826) scale(4.06872)" r=".435"/><circle transform="rotate(135 159.136 271.212) scale(4.06872)" r=".435"/><circle cx="445.944" cy="357.708" r="1.772"/><circle transform="rotate(-135 286.809 86.496) scale(4.06872)" r=".435"/><circle transform="rotate(-90 377.086 -44.118) scale(4.06872)" r=".435"/><circle transform="rotate(-45 595.037 -359.449) scale(4.06872)" r=".435"/></svg>